<svg width="504" height="383" viewBox="0 0 504 383" fill="none" xmlns="http://www.w3.org/2000/svg">
<path d="M125.716 221.663L8 378.834H446.233L499.102 221.663M125.716 221.663H499.102M125.716 221.663L133.563 5.60826H499.102V221.663" stroke="#FAFBED" stroke-width="8"/>
<path d="M145.542 254.868L157.107 242.914H178.585L167.432 254.868H145.542Z" stroke="#FAFBED" stroke-width="3"/>
<path d="M211.628 254.868L223.193 242.914H244.671L233.518 254.868H211.628Z" stroke="#FAFBED" stroke-width="3"/>
<path d="M178.584 254.868L190.15 242.914H211.627L200.475 254.868H178.584Z" stroke="#FAFBED" stroke-width="3"/>
<path d="M305.8 297.37L317.365 285.417H338.843L327.691 297.37H305.8Z" stroke="#FAFBED" stroke-width="3"/>
<path d="M371.886 297.37L383.451 285.417H404.929L393.777 297.37H371.886Z" stroke="#FAFBED" stroke-width="3"/>
<path d="M338.843 297.37L350.408 285.417H371.886L360.734 297.37H338.843Z" stroke="#FAFBED" stroke-width="3"/>
<path d="M205.019 297.37L216.584 285.417H238.062L226.91 297.37H205.019Z" stroke="#FAFBED" stroke-width="3"/>
<path d="M271.105 297.37L282.67 285.417H304.148L292.996 297.37H271.105Z" stroke="#FAFBED" stroke-width="3"/>
<path d="M238.062 297.37L249.627 285.417H271.105L259.953 297.37H238.062Z" stroke="#FAFBED" stroke-width="3"/>
<path d="M104.238 297.37L115.803 285.417H137.281L126.129 297.37H104.238Z" stroke="#FAFBED" stroke-width="3"/>
<path d="M170.324 297.37L181.889 285.417H203.367L192.215 297.37H170.324Z" stroke="#FAFBED" stroke-width="3"/>
<path d="M137.281 297.37L148.846 285.417H170.324L159.172 297.37H137.281Z" stroke="#FAFBED" stroke-width="3"/>
<path d="M322.322 276.119L333.887 264.165H355.365L344.213 276.119H322.322Z" stroke="#FAFBED" stroke-width="3"/>
<path d="M388.408 276.119L399.973 264.165H421.451L410.299 276.119H388.408Z" stroke="#FAFBED" stroke-width="3"/>
<path d="M355.365 276.119L366.93 264.165H388.408L377.255 276.119H355.365Z" stroke="#FAFBED" stroke-width="3"/>
<path d="M223.193 276.119L234.758 264.165H256.236L245.083 276.119H223.193Z" stroke="#FAFBED" stroke-width="3"/>
<path d="M289.279 276.119L300.844 264.165H322.322L311.17 276.119H289.279Z" stroke="#FAFBED" stroke-width="3"/>
<path d="M256.236 276.119L267.801 264.165H289.279L278.127 276.119H256.236Z" stroke="#FAFBED" stroke-width="3"/>
<path d="M124.064 276.119L135.629 264.165H157.107L145.955 276.119H124.064Z" stroke="#FAFBED" stroke-width="3"/>
<path d="M190.15 276.119L201.715 264.165H223.193L212.041 276.119H190.15Z" stroke="#FAFBED" stroke-width="3"/>
<path d="M157.107 276.119L168.672 264.165H190.15L178.998 276.119H157.107Z" stroke="#FAFBED" stroke-width="3"/>
<path d="M343.799 254.868L355.364 242.914H376.842L365.69 254.868H343.799Z" stroke="#FAFBED" stroke-width="3"/>
<path d="M409.885 254.868L421.451 242.914H442.928L431.776 254.868H409.885Z" stroke="#FAFBED" stroke-width="3"/>
<path d="M376.843 254.868L388.408 242.914H409.886L398.734 254.868H376.843Z" stroke="#FAFBED" stroke-width="3"/>
<path d="M371.886 297.37L383.451 285.417H404.929L393.777 297.37H371.886Z" stroke="#FAFBED" stroke-width="3"/>
<path d="M305.8 297.37L317.365 285.417H338.843L327.691 297.37H305.8Z" stroke="#FAFBED" stroke-width="3"/>
<path d="M371.886 297.37L383.451 285.417H404.929L393.777 297.37H371.886Z" stroke="#FAFBED" stroke-width="3"/>
<path d="M338.843 297.37L350.408 285.417H371.886L360.734 297.37H338.843Z" stroke="#FAFBED" stroke-width="3"/>
<path d="M205.019 297.37L216.584 285.417H238.062L226.91 297.37H205.019Z" stroke="#FAFBED" stroke-width="3"/>
<path d="M271.105 297.37L282.67 285.417H304.148L292.996 297.37H271.105Z" stroke="#FAFBED" stroke-width="3"/>
<path d="M238.062 297.37L249.627 285.417H271.105L259.953 297.37H238.062Z" stroke="#FAFBED" stroke-width="3"/>
<path d="M104.238 297.37L115.803 285.417H137.281L126.129 297.37H104.238Z" stroke="#FAFBED" stroke-width="3"/>
<path d="M170.324 297.37L181.889 285.417H203.367L192.215 297.37H170.324Z" stroke="#FAFBED" stroke-width="3"/>
<path d="M137.281 297.37L148.846 285.417H170.324L159.172 297.37H137.281Z" stroke="#FAFBED" stroke-width="3"/>
<path d="M371.886 297.37L383.451 285.417H404.929L393.777 297.37H371.886Z" stroke="#FAFBED" stroke-width="3"/>
<path d="M286.8 319.507L298.365 307.553H319.843L308.691 319.507H286.8Z" stroke="#FAFBED" stroke-width="3"/>
<path d="M352.886 319.507L364.451 307.553H385.929L374.777 319.507H352.886Z" stroke="#FAFBED" stroke-width="3"/>
<path d="M319.843 319.507L331.408 307.553H352.886L341.734 319.507H319.843Z" stroke="#FAFBED" stroke-width="3"/>
<path d="M186.019 319.507L197.584 307.553H219.062L207.91 319.507H186.019Z" stroke="#FAFBED" stroke-width="3"/>
<path d="M252.105 319.507L263.67 307.553H285.148L273.996 319.507H252.105Z" stroke="#FAFBED" stroke-width="3"/>
<path d="M219.062 319.507L230.627 307.553H252.105L240.953 319.507H219.062Z" stroke="#FAFBED" stroke-width="3"/>
<path d="M85.238 319.507L96.8031 307.553H118.281L107.129 319.507H85.238Z" stroke="#FAFBED" stroke-width="3"/>
<path d="M151.324 319.507L162.889 307.553H184.367L173.215 319.507H151.324Z" stroke="#FAFBED" stroke-width="3"/>
<path d="M118.281 319.507L129.846 307.553H151.324L140.172 319.507H118.281Z" stroke="#FAFBED" stroke-width="3"/>
<path d="M352.886 319.507L364.451 307.553H385.929L374.777 319.507H352.886Z" stroke="#FAFBED" stroke-width="3"/>
<path d="M286.8 319.507L298.365 307.553H319.843L308.691 319.507H286.8Z" stroke="#FAFBED" stroke-width="3"/>
<path d="M352.886 319.507L364.451 307.553H385.929L374.777 319.507H352.886Z" stroke="#FAFBED" stroke-width="3"/>
<path d="M319.843 319.507L331.408 307.553H352.886L341.734 319.507H319.843Z" stroke="#FAFBED" stroke-width="3"/>
<path d="M186.019 319.507L197.584 307.553H219.062L207.91 319.507H186.019Z" stroke="#FAFBED" stroke-width="3"/>
<path d="M252.105 319.507L263.67 307.553H285.148L273.996 319.507H252.105Z" stroke="#FAFBED" stroke-width="3"/>
<path d="M219.062 319.507L230.627 307.553H252.105L240.953 319.507H219.062Z" stroke="#FAFBED" stroke-width="3"/>
<path d="M148.846 357.14L160.411 345.629H341.734L330.582 357.14H148.846Z" stroke="#FAFBED" stroke-width="3"/>
<path d="M85.238 319.507L96.8031 307.553H118.281L107.129 319.507H85.238Z" stroke="#FAFBED" stroke-width="3"/>
<path d="M151.324 319.507L162.889 307.553H184.367L173.215 319.507H151.324Z" stroke="#FAFBED" stroke-width="3"/>
<path d="M118.281 319.507L129.846 307.553H151.324L140.172 319.507H118.281Z" stroke="#FAFBED" stroke-width="3"/>
<path d="M352.886 319.507L364.451 307.553H385.929L374.777 319.507H352.886Z" stroke="#FAFBED" stroke-width="3"/>
<path d="M388.408 276.119L399.973 264.165H421.451L410.299 276.119H388.408Z" stroke="#FAFBED" stroke-width="3"/>
<path d="M409.885 254.868L421.451 242.914H442.928L431.776 254.868H409.885Z" stroke="#FAFBED" stroke-width="3"/>
<path d="M376.843 254.868L388.408 242.914H409.886L398.734 254.868H376.843Z" stroke="#FAFBED" stroke-width="3"/>
<path d="M244.67 254.868L256.236 242.914H277.713L266.561 254.868H244.67Z" stroke="#FAFBED" stroke-width="3"/>
<path d="M310.756 254.868L322.322 242.914H343.799L332.647 254.868H310.756Z" stroke="#FAFBED" stroke-width="3"/>
<path d="M277.714 254.868L289.279 242.914H310.757L299.604 254.868H277.714Z" stroke="#FAFBED" stroke-width="3"/>
<path d="M145.955 18.8903H486.297V210.152H139.759L145.955 18.8903Z" fill="#FAFBED"/>
<path d="M140.253 113.636L304.974 211.037L277.216 216.829L140.253 137.496L140.253 113.636Z" fill="#DB4848"/>
<path d="M491.908 108.857L351.029 16.5131L376.704 10.5522L493.987 85.731L491.908 108.857Z" fill="#DB4848"/>
<path d="M141.411 15.7912L473.493 213.797L323.068 213.797L138.52 105.666L141.411 15.7912Z" fill="#DB4848"/>
</svg>
